PathFileType	4	(X/Y/Z)	Patient4_TMGait_0pt4_01_left_20.trc.trc
DataRate	CameraRate	NumFrames	NumMarkers	Units	OrigDataRate	OrigDataStartFrame	OrigNumFrames
80.924855491329	80.924855491329	7	33	mm	80.924855491329	1	       141
Frame#	Time	Sacral			L.Shoulder			Chest			R.Shoulder			Neck			R.ASIS			L.ASIS			R.Thigh.Superior			R.Thigh.Lateral			R.Thigh.Inferior			R.Patella			L.Thigh.Superior			L.Thigh.Lateral			L.Thigh.Inferior			L.Patella			L.Shank.Superior			L.Shank.Lateral			L.Shank.Inferior			R.Shank.Superior			R.Shank.Lateral			R.Shank.Inferior			R.Heel			R.Midfoot.Superior			R.Midfoot.Lateral			R.Toe			L.Heel			L.Midfoot.Lateral			L.Midfoot.Superior			L.Toe			L.Elbow			L.Wrist			R.Elbow			R.Wrist			
		X1	Y1	Z1	X2	Y2	Z2	X3	Y3	Z3	X4	Y4	Z4	X5	Y5	Z5	X6	Y6	Z6	X7	Y7	Z7	X8	Y8	Z8	X9	Y9	Z9	X10	Y10	Z10	X11	Y11	Z11	X12	Y12	Z12	X13	Y13	Z13	X14	Y14	Z14	X15	Y15	Z15	X16	Y16	Z16	X17	Y17	Z17	X18	Y18	Z18	X19	Y19	Z19	X20	Y20	Z20	X21	Y21	Z21	X22	Y22	Z22	X23	Y23	Z23	X24	Y24	Z24	X25	Y25	Z25	X26	Y26	Z26	X27	Y27	Z27	X28	Y28	Z28	X29	Y29	Z29	X30	Y30	Z30	X31	Y31	Z31	X32	Y32	Z32	X33	Y33	Z33	

1	23.930000000000	572.325705031635	1008.826796631611	459.484919215485	758.725715235733	1433.617475863437	269.303326123968	870.794751046825	1359.538610184954	421.982426178310	803.425345404045	1437.304456384754	601.689991867564	767.755801031083	1493.922737577065	426.569653080028	806.831018517015	940.465247418650	562.213514579957	775.269028428411	962.182614924036	290.835793878915	841.188207350383	737.941705808425	533.180599456108	758.577886682177	631.317913920190	594.334872951330	831.415303394516	578.012892907028	510.661795932727	828.385387837141	491.966023114445	515.431145512560	857.326590891071	778.973234743333	314.666280848288	812.997832125737	654.891557486827	233.274687800576	917.874221269905	592.211067134544	292.687740947769	932.251373354188	504.241434140727	282.125479498584	867.820473891741	436.574934560320	272.608249664380	726.828205951988	387.455905018663	228.972574203816	726.580447050161	253.746639656637	275.436666897355	800.406131208755	403.568076050689	523.959215515152	729.227824481609	300.027085374720	585.655032995023	769.431955723304	205.360089067177	521.335989347326	633.930061203268	40.582797955246	489.741405710688	804.943474889116	96.632194067090	529.561671025337	715.967072269462	36.084369166012	566.159879380807	924.231455216348	43.313838528780	559.776425417430	544.781713312078	179.999625678547	323.138413186072	595.636461482500	141.644273533973	234.773057858797	702.663543618823	147.913157976076	247.932497342377	776.853167148685	38.340054759383	203.583382408991	679.753975972020	1112.413130804165	112.742925334969	798.609740742274	888.809205652841	32.505864371364	820.646354962555	1098.598752716520	742.278250662443	1010.187111584024	924.403559470366	709.029460081258	
2	23.942357142857	571.070101214527	1009.390742175689	461.567199249818	757.749627582318	1433.041461183742	269.753592004609	870.703698414220	1358.862597772187	421.713211978307	805.049362038881	1437.203526174305	601.824985256850	768.297695912749	1493.708299904069	426.713428698056	806.157531483184	940.132268155661	562.788760774490	772.875589320539	962.266239455732	291.609900356518	839.307634707243	737.348330644679	533.525422779402	756.210058220151	631.079699360540	594.869184446994	828.465229463432	577.439757798075	511.014911621886	824.871805890861	491.490197440449	515.668440992870	856.176761408713	780.839219115427	315.713831398140	812.944999641801	656.062605972997	234.830428397064	918.631167273722	594.849366174585	294.163858308780	934.275329242682	507.598102340402	283.908737508802	872.324069046465	438.712680792911	274.106254740182	733.683214914558	384.088809684570	230.611389708571	739.304101622902	250.635424518394	276.766127816613	796.587522246099	403.140728308425	524.201520219913	725.121214256034	299.838109372824	585.952966449201	764.778160678199	205.119480532299	521.426975334942	628.733676476586	40.554282480773	489.820129608889	799.673439697979	96.603071287221	529.599439413279	710.679203318233	36.033246266235	566.204224739374	918.979720999915	43.281654426981	559.832044382313	561.570694115527	168.292350159471	324.575218516280	613.905680679109	133.009050686556	235.993847381706	720.024816594836	144.706417803001	249.102415183493	799.487940726524	39.741060281919	204.269750523784	676.015645461020	1110.341057753419	117.088808211081	785.226174092784	882.376051955238	38.142766319602	824.108522676081	1098.314747251299	741.655824211543	1016.498927459973	928.666634239703	704.799731176719	
3	23.954714285714	569.836689611442	1009.956817778181	463.609669439918	756.784284192046	1432.488597392648	270.184634446968	870.617440426536	1358.198091321620	421.422073555418	806.673333587535	1437.100025122380	601.935351018681	768.837443664935	1493.498259202852	426.844281960989	805.493630011528	939.807279425167	563.306577269877	770.505342345005	962.356824360941	292.340431992294	837.403109619882	736.759848118101	533.811704934702	753.847503830763	630.851823145743	595.389552683019	825.492045864614	576.874720765768	511.335428468248	821.349504367780	491.029240303496	515.896291818164	854.990243126400	782.653933762009	316.735737959704	812.828966013081	657.193368372436	236.360814794542	919.266686636042	597.410450820204	295.669059171456	936.183263153131	510.893708724505	285.676360702127	876.734919033840	440.824349281417	275.581419749452	740.526137142614	380.673953568843	232.218840586979	752.054487069226	247.545006658803	278.064181073208	792.766152780989	402.727858335023	524.436913333928	721.025867854417	299.652931990865	586.246754993857	760.150447478739	204.883971002182	521.518226897668	623.582011748704	40.527741101735	489.896631379047	794.453683339846	96.575651177807	529.639169293715	705.443758321210	35.983938300628	566.249139368811	913.776487605049	43.252534462657	559.885115322415	578.514253709984	156.624506079071	325.979902313812	632.288510186614	124.446988774148	237.171221465452	737.441839432256	141.556477592274	250.243546660941	822.121881363161	41.266260120394	204.899711559635	672.324094202346	1108.340936860875	121.337806072435	772.022882187555	876.150494344640	43.710979467792	827.544761179040	1098.023808786086	740.993246389473	1022.712346797266	932.872261023212	700.544125087898	
4	23.967071428571	568.644834957484	1010.528461960168	465.565904599971	755.845233722320	1431.977110049884	270.568215763618	870.544641441681	1357.553112636099	421.078587650347	808.300684165207	1436.991075507708	601.987286096495	769.377574395706	1493.295221151530	426.938915664098	804.844732722895	939.495635872840	563.721138448541	768.187129813684	962.457667895295	292.983637457530	835.445928501124	736.175770061096	533.996105486659	751.473693507422	630.643382366251	595.883050436563	822.456248069323	576.321401282658	511.599616026545	817.784104217398	490.594030863876	516.107434469496	853.726406570779	784.362419338828	317.714773431889	812.598216234567	658.246123212461	237.829256801005	919.667796141084	599.815918733736	297.221041524912	937.866886709357	514.077632026380	287.418813081865	880.973191850773	442.891889841266	277.026260775786	747.392534721338	377.183489804743	233.745712305806	764.875598424981	244.526767857225	279.314329940756	788.914777549199	402.341921021772	524.660262538766	716.925666472024	299.475678403945	586.532677203377	755.547713782912	204.659243745019	521.609968207130	618.489246746584	40.503984509566	489.969155688379	789.303191687225	96.551152051912	529.681571314761	700.279777125220	35.937169695697	566.293929380180	908.638413890348	43.229682248701	559.934275382676	595.776668836296	145.084505817843	327.290139650086	650.948756974200	116.063292449041	238.273427726309	755.001431181411	138.552129479240	251.361428866710	844.791149912660	43.069350102264	205.536370908703	668.694903287086	1106.486989341305	125.397854134360	759.151368606414	870.334527400214	49.136717182720	830.953240559298	1097.719665113862	740.234403603623	1028.745385845213	936.964823617921	696.202552533917	
5	23.979428571429	567.508736611000	1011.108356527575	467.397090771270	754.946937156303	1431.519561903942	270.877902254434	870.494423860913	1356.933007142576	420.654145015086	809.936215998645	1436.873296372792	601.949316825239	769.921792030127	1493.099899387041	426.974542896836	804.210251592266	939.198744685749	563.997499941798	765.946254093321	962.568788007127	293.505052525195	833.409340568912	735.593474895826	534.052000668222	749.066232727205	630.461568323372	596.341733511515	819.318620211986	575.780439425688	511.794303475144	814.138298699676	490.191737450215	516.299706753066	852.348940245882	785.920007913066	318.643431570367	812.216707382410	659.192519222529	239.201456045348	919.746122663948	602.004668275710	298.831376449938	939.247220705590	517.117167482557	289.130729567921	884.984363345676	444.908751128979	278.446012147077	754.342295083222	373.606437975242	235.138818453418	777.814497584105	241.643797373375	280.515197165710	785.000950490745	401.991246132975	524.869627147378	712.794827764719	299.309218082830	586.808137049052	750.955404688399	204.450023805391	521.703171447683	613.451474805133	40.483918655455	490.036873284966	784.221981761178	96.530626315124	529.727534482366	695.187062087189	35.893274279223	566.338130869544	903.563780348337	43.215729859483	559.978663930206	613.495510599295	133.781764309451	328.437035592582	670.047947762874	107.967079097168	239.280352745610	772.793251783189	135.787155233122	252.484326713148	867.547836112982	45.289627976535	206.304642235696	665.123085894066	1104.839330006668	129.201024703156	746.717453066004	865.086400165979	54.359631371060	834.345289218732	1097.397422674421	739.328707305438	1034.542133803219	940.900901720711	691.711853876353	
6	23.991785714286	566.438207750768	1011.696939188905	469.071611039943	754.103343148158	1431.121803461283	271.090447762478	870.475299361320	1356.340605548399	420.125791845475	811.582424376598	1436.743593067742	601.795157605780	770.473780302920	1492.911268646220	426.930202993030	803.586220521776	938.915329846393	564.116321905740	763.806973740866	962.686229778625	293.882224101334	831.275714499664	735.009198575057	533.973441949192	746.602714141275	630.311227352622	596.762094718652	816.049847162246	575.250023981037	511.918382315259	810.381289159011	489.825346853419	516.475670087732	850.833319646090	787.293522650680	319.522679133062	811.669459101299	660.014533136728	240.445835623869	919.448535985547	603.934453591105	300.499490421016	940.280400412072	519.994810759660	290.808417343886	888.737264099456	446.876006198108	279.855431026194	761.439579977917	369.957355728616	236.344159533834	790.889722271344	238.969367210057	281.678766238131	780.996010128888	401.679621369413	525.065575897698	708.606803323849	299.155182842830	587.071194548769	746.354181449124	204.259995808909	521.799230205352	608.454966452612	40.468260950533	490.099622421725	779.198629828906	96.514757918218	529.777545512879	690.153822734224	35.852274000997	566.381397067735	898.540224359885	43.212601175981	560.017988913144	631.729859828286	122.856269950931	329.350333531031	689.689479144144	100.274362264874	240.185360331643	790.864196125187	133.354946646802	253.659163680377	890.409254844489	48.031566444513	207.380325702987	661.589045060101	1103.440456055483	132.703503084993	734.792170822799	860.512612790914	59.328372723664	837.738728881737	1097.054916823624	738.236903545495	1040.068274869664	944.646381148894	687.019014084571	
7	24.004142857143	565.439810793377	1012.291661071585	470.564024239585	753.327952317515	1430.782694449443	271.186538100760	870.494115968638	1355.776353099530	419.478572031597	813.237163638998	1436.600015607368	601.505428459542	771.036464493410	1492.726969115098	426.787246620196	802.968586783098	938.643139702247	564.076450124064	761.794083406635	962.802151050657	294.105341625443	829.041012363028	734.418775940871	533.774887327235	744.064673559817	630.194579790704	597.143582978858	812.636100672789	574.726489305506	511.981843028915	806.494122316425	489.493574839225	516.640997219438	849.172093454371	788.460862769148	320.359042608794	810.963872194694	660.703507243971	241.534461798144	918.761782231356	605.580502683086	302.209213398072	940.956825256529	522.703497698497	292.448232999714	892.219394944887	448.796938549955	281.273794077544	768.733561008236	366.276984164672	237.313145385170	804.072025369095	236.579315101811	282.825923967317	776.880727596193	401.406662180004	525.250105866221	704.340194428122	299.014281860977	587.320127578323	741.726163491547	204.091599345167	521.899527185560	603.482540264247	40.457259184895	490.157501273620	774.216032616874	96.503546991363	529.831024825427	685.162669008806	35.814042863580	566.423443327160	893.550583778473	43.221452313225	560.052583744971	650.433968457039	112.470916251851	329.966857165253	709.883440690883	93.101641044863	240.995762141676	809.190206476045	131.339072925277	254.943021421601	913.326404565947	51.351010133597	208.965013201900	658.065423322074	1102.313881712785	135.882815649489	723.421047195134	856.666015044652	63.997610660027	841.151942693015	1096.693345988703	736.933640113168	1045.306095892849	948.174505397336	682.089003136481	
